<svg height="600" width="900" viewBox="0 0 900 600" xmlns="http://www.w3.org/2000/svg">
  
  <rect fill="#AA151B" height="150" width="900"></rect>
  <rect fill="#F1BF00" height="300" width="900" y="150"></rect>
  <rect fill="#AA151B" height="150" width="900" y="450"></rect>

  
  <g transform="translate(80, 170) scale(0.48)">
    
    <g transform="translate(0, 0)">
      <rect fill="#C0C0C0" height="300" width="20" y="50" x="35"></rect>
      <rect fill="#FFD700" height="10" width="30" y="45" x="30"></rect>
      <rect fill="#FFD700" height="10" width="30" y="345" x="30"></rect>
      <text transform="rotate(-90 45 200)" text-anchor="middle" font-weight="bold" fill="#C41E3A" font-size="22" y="200" x="45">PLVS</text>
      <rect fill="#0066CC" height="30" width="50" y="350" x="20"></rect>
      <rect fill="#FFFFFF" height="20" width="50" y="380" x="20"></rect>
      <rect fill="#0066CC" height="30" width="50" y="400" x="20"></rect>
    </g>

    
    <g transform="translate(450, 0)">
      <rect fill="#C0C0C0" height="300" width="20" y="50" x="35"></rect>
      <rect fill="#FFD700" height="10" width="30" y="45" x="30"></rect>
      <rect fill="#FFD700" height="10" width="30" y="345" x="30"></rect>
      <text transform="rotate(-90 45 200)" text-anchor="middle" font-weight="bold" fill="#C41E3A" font-size="22" y="200" x="45">VLTRA</text>
      <rect fill="#0066CC" height="30" width="50" y="350" x="20"></rect>
      <rect fill="#FFFFFF" height="20" width="50" y="380" x="20"></rect>
      <rect fill="#0066CC" height="30" width="50" y="400" x="20"></rect>
    </g>

    
    <g transform="translate(120, 60)">
      <rect stroke-width="4" stroke="#000" fill="#FFFFFF" rx="20" height="320" width="240"></rect>
      <rect fill="#C41E3A" height="160" width="120" y="0" x="0"></rect>
      <path fill="#FFD700" d="M30 40 L90 40 L60 100 Z"></path>
      <rect fill="#FFFFFF" height="160" width="120" y="0" x="120"></rect>
      <path fill="#C41E3A" d="M150 30 L210 30 L180 90 L210 150 L150 120 L90 150 L120 90 Z"></path>
      <rect fill="#FFD700" height="160" width="120" y="160" x="0"></rect>
      <rect fill="#C41E3A" height="20" width="100" y="170" x="10"></rect>
      <rect fill="#C41E3A" height="20" width="100" y="210" x="10"></rect>
      <rect fill="#C41E3A" height="20" width="100" y="250" x="10"></rect>
      <rect fill="#C41E3A" height="20" width="100" y="290" x="10"></rect>
      <rect fill="#FFFFFF" height="160" width="120" y="160" x="120"></rect>
      <circle fill="#C41E3A" r="50" cy="240" cx="180"></circle>
      <circle fill="#FFD700" r="40" cy="240" cx="180"></circle>
      <circle fill="#C41E3A" r="30" cy="240" cx="180"></circle>
      <polygon fill="#C41E3A" points="80,240 120,280 160,240 120,320"></polygon>
      <path fill="#0066CC" d="M120 260 L140 300 L100 300 Z"></path>
      <ellipse fill="#0066CC" ry="70" rx="50" cy="160" cx="120"></ellipse>
      <path fill="#FFD700" d="M90 130 L150 130 L120 190 Z M90 170 L150 170 L120 230 Z M90 210 L150 210 L120 270 Z"></path>
      <g transform="translate(120, -50)">
        <ellipse fill="#C41E3A" ry="40" rx="80" cy="0" cx="0"></ellipse>
        <ellipse fill="#FFD700" ry="30" rx="70" cy="-10" cx="0"></ellipse>
        <circle fill="#000" r="15" cy="-30" cx="0"></circle>
        <circle fill="#FFD700" r="10" cy="-30" cx="0"></circle>
      </g>
    </g>
  </g>
  
  <text text-anchor="middle" fill="#AA151B" font-weight="bold" font-size="80" font-family="Arial, Helvetica, sans-serif" y="300" x="620">
    DUOLINGO
  </text>

</svg>
